<svg width="134" height="48" viewBox="0 0 134 48" fill="none" xmlns="http://www.w3.org/2000/svg">
<g style="mix-blend-mode:luminosity" clip-path="url(#clip0_333_1359)" filter="url(#filter0_d_333_1359)">
<path fill-rule="evenodd" clip-rule="evenodd" d="M129.59 30.5633C124.335 38.4606 116.011 36.1691 113.512 34.3749C112.448 35.0147 110.582 36.417 108.095 36.255C102.797 35.9104 100.9 29.2007 100.9 29.2007C100.938 29.2275 99.3218 29.6949 98.4484 29.6866C98.4372 31.6542 96.5181 36.3546 91.3387 36.2945C85.5268 36.2273 84.3452 28.5531 84.3452 28.5531C84.3452 28.5531 83.7669 29.2649 81.5677 29.9739C81.6785 28.4622 81.5975 36.0644 74.6317 36.1761C69.1247 36.2646 67.6382 28.4348 67.6382 28.4348C67.6382 28.4348 66.6828 29.3143 64.8314 29.6194C64.949 28.0831 64.7577 36.2019 57.791 36.1761C53.083 36.1588 51.4742 31.353 51.5993 30.686C51.759 29.8359 50.0082 36.2957 45.435 36.195C43.5478 36.1459 42.1409 34.9349 41.258 33.3204C40.0762 34.5189 38.3603 36.195 36.4354 36.195C32.9801 36.195 31.4568 33.6337 31.7148 26.3179C31.7368 25.4502 31.6661 25.109 30.6929 24.9792C30.1087 24.8928 29.5105 24.7292 28.8775 24.643C28.6747 25.243 26.954 35.9998 21.0371 36.204C19.0521 36.2725 17.9667 34.7485 17.0753 33.6174C15.709 35.2194 13.9053 36.255 11.3357 36.255C6.98313 36.255 4.01758 33.1365 4.01758 29.2895C4.01758 25.4425 6.98313 22.3242 11.3357 22.3242C12.1053 22.3242 12.3213 22.422 13.0244 22.6038C11.5785 10.9365 14.9931 9.11303 17.9801 9.11303C20.8478 9.11303 25.7469 15.012 18.8534 29.9751C20.3839 34.4381 23.6833 34.1857 25.2688 24.9982C25.5915 23.1307 24.7287 20.6105 26.0708 20.2588C28.5241 19.616 28.7844 21.5446 29.9347 21.866C31.151 22.2056 31.8609 22.1724 33.0285 22.3885C35.0238 22.7339 35.8024 23.6838 35.5593 25.7996C35.2674 28.4767 34.7567 32.3732 36.3137 32.8481C37.4365 33.1931 39.4865 31.1293 39.8463 30.0001C40.2059 28.871 40.281 28.4845 40.313 27.6563C40.3616 25.8861 40.4227 24.5886 40.7633 23.2499C40.909 22.7319 41.0752 22.3888 41.7365 22.3654C42.2806 22.3531 43.2756 22.2079 43.7137 22.51C44.2975 22.8988 44.2245 23.2933 44.1575 24.3316C43.4785 39.1353 48.7045 31.7452 50.2627 25.8279C49.7078 19.1369 50.0888 9.23555 54.8196 9.06949C57.28 8.98313 58.3677 10.7301 58.4874 12.034C58.8258 15.7168 56.9302 21.8172 54.4372 25.9197C53.0124 34.2907 60.6668 35.9459 61.8909 29.2642C59.8882 28.4202 57.7239 25.0044 59.4851 23.3397C60.4734 22.4055 64.5871 23.7476 64.6545 26.6748C66.6724 26.1965 66.9418 25.1867 66.9698 25.354C66.4151 18.663 66.9295 9.23564 71.6607 9.06957C74.1208 8.98321 75.2084 10.7301 75.328 12.0341C75.6664 15.7168 73.7708 21.8173 71.2781 25.9199C69.8531 34.2907 77.5078 35.946 78.7315 29.2643C77.2488 29.0107 74.1188 25.3775 75.9248 23.3398C76.8899 22.2509 80.9886 24.5154 81.4474 26.7717C83.3859 26.2855 83.6492 25.3078 83.677 25.4724C83.1221 18.7816 83.6366 9.35422 88.3678 9.18815C90.8279 9.10179 91.9155 10.8487 92.0351 12.1527C92.3735 15.8354 90.4779 21.936 87.9849 26.0385C86.5602 34.4095 94.2147 36.0644 95.4388 29.3827C93.4012 29.082 90.5054 25.2458 92.836 23.2833C93.7672 22.4992 97.3253 24.5346 98.1582 26.8568C99.3154 26.8173 100.036 26.4636 100.19 26.4279C98.3427 18.573 99.718 9.14836 104.807 9.06969C107.558 9.02721 110.248 10.3877 109.067 17.8606C107.94 24.9906 103.89 27.9827 103.9 28.0285C104.135 28.8827 106.214 36.0312 111.447 32.2594C111.176 31.7157 110.905 31.1603 110.753 30.4874C109.886 26.5677 111.59 22.1404 116.221 21.4249C118.874 21.0149 121.374 22.1598 121.769 24.741C122.419 28.9645 118.116 32.0233 116.48 32.6868C115.747 32.3178 123.123 36.5107 127.501 28.108C127.755 27.6282 128.061 27.6689 128.457 27.9162C128.737 28.0908 130.332 29.4299 129.59 30.5633ZM14.5018 28.2517C14.2791 27.6615 13.822 26.361 13.6603 25.7976C12.7701 25.1114 12.1347 25 10.992 25C8.45254 25 6.95788 27.0809 6.95788 29.3247C6.95788 31.5684 8.58621 33.6496 11.1257 33.6496C13.3264 33.6496 15.0013 32.3235 15.5123 30.4462C15.1547 29.7143 14.7998 29.0417 14.5018 28.2517ZM17.9179 12.2015C16.1335 12.2015 15.5282 15.974 15.6457 19.1924C15.7496 22.0378 16.6467 24.5428 17.1121 25.6653C17.2302 25.8059 17.2083 25.7144 17.3138 25.8636C20.412 19.8472 19.1269 12.2015 17.9179 12.2015ZM55.0745 12.32C52.7683 12.0855 52.7832 20.6001 53.0695 22.51C54.2672 20.8118 56.3479 12.7772 55.0745 12.32ZM71.9151 12.32C69.6089 12.0855 69.6238 20.6001 69.9102 22.51C71.1078 20.8118 73.1886 12.7772 71.9151 12.32ZM88.6223 12.4384C86.316 12.204 86.3309 20.7186 86.6173 22.6287C87.8149 20.9303 89.8957 12.8956 88.6223 12.4384ZM105.062 11.8215C101.469 12.461 102.306 23.0789 102.851 24.9412C107.084 19.789 107.171 11.628 105.062 11.8215ZM118.528 25.0903C118.346 24.4133 117.432 24.0515 116.802 24.1407C114.997 24.359 113.248 26.3505 113.925 29.3824C114.076 30.0576 114.453 30.6792 114.447 30.6585C118.485 28.2577 118.828 26.3659 118.528 25.0903ZM42.4437 20.0218C41.9281 20.0219 41.424 19.8864 40.9953 19.6326C40.5665 19.3787 40.2322 19.0179 40.0348 18.5957C39.8374 18.1735 39.7857 17.7089 39.8864 17.2607C39.9868 16.8124 40.2352 16.4007 40.5998 16.0775C40.9643 15.7543 41.4288 15.5342 41.9345 15.4451C42.4403 15.3559 42.9645 15.4016 43.4409 15.5765C43.9174 15.7514 44.3245 16.0476 44.6109 16.4276C44.8974 16.8076 45.0503 17.2544 45.0503 17.7114C45.0503 18.0148 44.9829 18.3152 44.8519 18.5955C44.721 18.8758 44.529 19.1305 44.2869 19.345C44.0448 19.5596 43.7575 19.7298 43.4413 19.8459C43.125 19.962 42.7861 20.0218 42.4437 20.0218Z" fill="#0D0C22"/>
</g>
<defs>
<filter id="filter0_d_333_1359" x="0.0175781" y="0" width="134.369" height="56" filterUnits="userSpaceOnUse" color-interpolation-filters="sRGB">
<feFlood flood-opacity="0" result="BackgroundImageFix"/>
<feColorMatrix in="SourceAlpha" type="matrix" values="0 0 0 0 0 0 0 0 0 0 0 0 0 0 0 0 0 0 127 0" result="hardAlpha"/>
<feOffset dy="4"/>
<feGaussianBlur stdDeviation="2"/>
<feComposite in2="hardAlpha" operator="out"/>
<feColorMatrix type="matrix" values="0 0 0 0 0 0 0 0 0 0 0 0 0 0 0 0 0 0 0.25 0"/>
<feBlend mode="normal" in2="BackgroundImageFix" result="effect1_dropShadow_333_1359"/>
<feBlend mode="normal" in="SourceGraphic" in2="effect1_dropShadow_333_1359" result="shape"/>
</filter>
<clipPath id="clip0_333_1359">
<rect width="126.369" height="48" fill="white" transform="translate(4.01758)"/>
</clipPath>
</defs>
</svg>
