<svg width="602" height="515" viewBox="0 0 602 515" fill="none" xmlns="http://www.w3.org/2000/svg">
<g clip-path="url(#clip0_332_1228)">
<path d="M311.768 432.535L329.369 427.349L324.234 445L329.369 462.601L311.768 457.465L294.117 462.601L299.303 445L294.117 427.349L311.768 432.535Z" fill="black" stroke="white" stroke-miterlimit="10"/>
</g>
<g clip-path="url(#clip1_332_1228)">
<path d="M125.717 345.509L157.193 362.659L125.717 379.947L108.498 411.354L91.2792 379.947L59.8033 362.659L91.2792 345.509L108.498 313.964L125.717 345.509Z" fill="black" stroke="white" stroke-miterlimit="10"/>
</g>
<path d="M565.35 389.333C563.45 392.777 559.912 395.268 554.817 396.813C549.719 398.359 543.107 398.943 535.145 398.6C519.225 397.913 498.023 393.524 473.009 385.868C422.988 370.558 357.827 342.216 289.387 304.465C220.948 266.715 162.215 226.717 122.582 192.575C102.762 175.501 87.7403 159.909 78.6667 146.81C74.1293 140.259 71.0959 134.355 69.6841 129.218C68.2729 124.084 68.4926 119.762 70.3922 116.319C72.2918 112.875 75.83 110.384 80.9254 108.839C86.0232 107.293 92.6352 106.709 100.597 107.052C116.517 107.739 137.719 112.128 162.733 119.784C212.753 135.094 277.915 163.436 346.355 201.187C414.794 238.937 473.527 278.934 513.16 313.077C532.979 330.15 548.002 345.742 557.075 358.842C561.613 365.393 564.646 371.297 566.058 376.434C567.469 381.568 567.249 385.889 565.35 389.333Z" stroke="black"/>
<path d="M545.119 426.007C543.22 429.451 539.681 431.942 534.586 433.487C529.488 435.033 522.876 435.617 514.915 435.273C498.994 434.587 477.793 430.198 452.778 422.542C402.758 407.232 337.596 378.89 269.157 341.139C200.717 303.388 141.984 263.391 102.351 229.249C82.532 212.175 67.5099 196.583 58.4362 183.483C53.8988 176.933 50.8655 171.029 49.4536 165.892C48.0425 160.758 48.2621 156.436 50.1617 152.992C52.0613 149.549 55.5996 147.057 60.6949 145.512C65.7927 143.967 72.4048 143.383 80.366 143.726C96.2866 144.413 117.488 148.802 142.503 156.458C192.523 171.767 257.685 200.11 326.124 237.86C394.564 275.611 453.297 315.608 492.93 349.75C512.749 366.824 527.771 382.416 536.845 395.516C541.382 402.067 544.415 407.971 545.827 413.107C547.238 418.241 547.019 422.563 545.119 426.007Z" stroke="black"/>
<path d="M524.891 462.681C522.991 466.125 519.453 468.616 514.358 470.161C509.26 471.707 502.648 472.291 494.686 471.948C478.766 471.261 457.564 466.872 432.55 459.216C382.529 443.906 317.368 415.564 248.928 377.813C180.489 340.063 121.756 300.066 82.1229 265.923C62.3034 248.85 47.2813 233.258 38.2077 220.158C33.6703 213.607 30.637 207.703 29.2251 202.566C27.8139 197.432 28.0336 193.111 29.9332 189.667C31.8328 186.223 35.3711 183.732 40.4664 182.187C45.5642 180.641 52.1763 180.057 60.1375 180.4C76.058 181.087 97.2598 185.476 122.274 193.132C172.294 208.442 237.456 236.784 305.896 274.535C374.335 312.285 433.068 352.283 472.701 386.425C492.52 403.499 507.543 419.091 516.616 432.19C521.154 438.741 524.187 444.645 525.599 449.782C527.01 454.916 526.79 459.237 524.891 462.681Z" stroke="black"/>
<circle cx="132.27" cy="104.5" r="15.5" fill="#B9FF66"/>
<circle cx="421.77" cy="435" r="10" fill="#B9FF66"/>
<circle cx="82.2695" cy="64.5" r="23.5" fill="black"/>
<path d="M306.742 383.59C300.438 385.744 293.233 381.475 290.727 374.071L251.729 259.81L274.517 252.015L313.555 366.433C316.061 373.758 313.006 381.436 306.742 383.59Z" fill="black"/>
<path d="M303.335 385C301.494 385 299.615 384.569 297.814 383.668C294.172 381.866 291.275 378.498 289.865 374.345L250.867 260.084C250.71 259.653 250.945 259.144 251.415 258.987L274.203 251.192C274.438 251.113 274.673 251.113 274.869 251.231C275.065 251.348 275.221 251.505 275.3 251.74L314.337 366.159C316.961 373.914 313.672 382.101 306.976 384.412C305.841 384.804 304.588 385 303.335 385ZM252.824 260.358L291.549 373.797C292.802 377.518 295.386 380.574 298.597 382.14C301.181 383.394 303.961 383.629 306.467 382.767C312.262 380.769 315.081 373.562 312.732 366.707L273.968 253.111L252.824 260.358Z" fill="black"/>
<path d="M270.483 153.382L196.754 205.988L168.053 235.798L156.776 255.736L156.737 255.892C154.505 259.339 155.797 267.291 159.987 275.399C164.098 283.39 169.893 288.953 173.965 289.266L173.848 289.344L195.501 291.695L236.027 285.231L322.051 254.443L428.984 272.775L429.727 272.814C402.867 267.8 366.609 231.88 340.258 181.076C313.945 130.31 305.566 80.132 317.117 55.376H317.078L271.07 152.128L270.483 153.382Z" fill="#B9FF66"/>
<path d="M447.499 270.603C473.926 256.873 468.816 194.629 436.085 131.577C403.353 68.5247 355.396 28.5412 328.968 42.2711C302.541 56.001 307.651 118.245 340.382 181.297C373.114 244.349 421.071 284.333 447.499 270.603Z" fill="white"/>
<path d="M435.875 274.185C424.364 274.185 410.503 267.761 395.585 255.266C375.263 238.266 355.333 212.06 339.475 181.428C315.473 135.05 305.567 87.4964 314.259 60.2726C317.157 51.1849 322.012 44.8392 328.629 41.4313C341.785 34.6939 360.306 40.4129 380.823 57.5698C401.145 74.57 421.075 100.775 436.933 131.407C460.974 177.786 470.88 225.339 462.149 252.563C459.251 261.651 454.396 267.996 447.779 271.404C444.216 273.284 440.222 274.185 435.875 274.185ZM340.611 40.4129C336.578 40.4129 332.819 41.2355 329.452 42.9982C323.226 46.171 318.684 52.2033 315.943 60.8601C307.368 87.6922 317.235 134.737 341.042 180.723C373.462 243.279 420.997 283.312 447.035 269.955C453.26 266.782 457.802 260.75 460.543 252.093C469.118 225.261 459.251 178.216 435.445 132.23C407.214 77.782 367.589 40.4129 340.611 40.4129Z" fill="black"/>
<path d="M435.875 274.185C424.364 274.185 410.503 267.761 395.585 255.266C375.263 238.265 355.333 212.06 339.475 181.428C315.473 135.05 305.567 87.4963 314.259 60.2725C317.157 51.1848 322.012 44.8391 328.629 41.4312C337.439 36.8874 348.951 38.0234 361.911 44.6824C374.323 51.0673 387.754 62.3877 400.832 77.3902C401.145 77.7427 401.106 78.2911 400.753 78.6045C400.401 78.9179 399.853 78.8787 399.539 78.5262C372.992 48.0511 346.132 34.4196 329.452 42.9981C323.226 46.1709 318.684 52.2033 315.943 60.86C307.368 87.6922 317.235 134.737 341.042 180.723C369.233 235.132 408.898 272.54 435.836 272.54C439.869 272.54 443.628 271.717 446.996 269.955C453.221 266.782 457.763 260.75 460.504 252.093C469.079 225.261 459.212 178.216 435.406 132.23C428.319 118.52 420.331 105.632 411.756 93.9204C411.482 93.5286 411.56 92.9803 411.952 92.7061C412.343 92.4319 412.891 92.5102 413.165 92.9019C421.819 104.692 429.806 117.658 436.972 131.446C460.974 177.785 470.88 225.339 462.149 252.563C459.251 261.65 454.396 267.996 447.779 271.404C444.216 273.284 440.222 274.185 435.875 274.185Z" fill="black"/>
<path d="M387.536 190.339C393.658 187.158 392.48 172.751 384.906 158.159C377.331 143.567 366.227 134.316 360.105 137.497C353.983 140.678 355.16 155.085 362.735 169.677C370.31 184.269 381.414 193.52 387.536 190.339Z" fill="#B9FF66"/>
<path d="M384.856 191.848C378.122 191.848 368.724 183.152 361.951 170.03C356.312 159.14 354.002 147.937 356.077 141.474C356.821 139.202 358.035 137.596 359.719 136.734C366.375 133.326 377.769 142.61 385.679 157.847C391.317 168.737 393.627 179.94 391.552 186.403C390.808 188.675 389.594 190.281 387.911 191.143C386.971 191.613 385.953 191.848 384.856 191.848ZM362.773 137.714C361.951 137.714 361.168 137.87 360.502 138.223C359.21 138.889 358.27 140.142 357.683 141.983C355.764 148.016 357.996 158.748 363.439 169.246C370.643 183.152 381.489 192.514 387.088 189.615C388.38 188.949 389.32 187.696 389.907 185.855C391.826 179.783 389.555 169.09 384.152 158.592C377.808 146.41 368.724 137.714 362.773 137.714Z" fill="#B9FF66"/>
<path d="M429.924 259.574C419.822 259.574 407.684 253.934 394.606 243.005C376.83 228.12 359.366 205.166 345.505 178.373C324.479 137.792 315.826 96.153 323.422 72.2978C325.967 64.307 330.235 58.7447 336.069 55.7285C349.46 48.8736 369.155 56.7861 390.142 77.4292C390.495 77.7818 390.495 78.291 390.142 78.6435C389.79 78.9961 389.281 78.9961 388.929 78.6435C368.49 58.5488 349.499 50.7146 336.852 57.2562C331.449 60.0373 327.494 65.2471 325.066 72.8071C317.588 96.2313 326.202 137.361 347.033 177.589C371.661 225.182 406.314 257.851 429.885 257.851C433.409 257.851 436.659 257.107 439.635 255.618C445.038 252.837 448.993 247.627 451.42 240.067C458.899 216.643 450.285 175.513 429.454 135.285C423.15 123.142 416.102 111.743 408.506 101.441C408.232 101.049 408.31 100.501 408.702 100.227C409.094 99.9526 409.642 100.031 409.916 100.423C417.59 110.842 424.677 122.28 431.021 134.501C452.047 175.082 460.7 216.721 453.104 240.576C450.559 248.567 446.291 254.13 440.457 257.146C437.246 258.752 433.722 259.574 429.924 259.574Z" fill="black"/>
<path d="M195.541 292.517C195.502 292.517 195.462 292.517 195.462 292.517L173.81 290.167C173.692 290.167 173.575 290.128 173.457 290.05C168.994 289.344 163.355 283.704 159.244 275.791C154.858 267.448 153.566 259.3 155.955 255.462L155.994 255.344L167.271 235.367C167.31 235.289 167.349 235.249 167.388 235.21L196.089 205.401C196.128 205.362 196.167 205.323 196.206 205.284L269.74 152.794L316.256 54.9845C316.374 54.7886 316.53 54.632 316.765 54.5536C317 54.4753 317.235 54.4753 317.431 54.5928C317.862 54.7886 318.058 55.2979 317.862 55.7288C306.076 80.994 315.395 131.211 341.003 180.645C366.649 230.157 402.398 266.821 429.924 271.874C430.355 271.953 430.668 272.344 430.629 272.814C430.59 273.245 430.198 273.559 429.767 273.598L429.023 273.559C428.984 273.559 428.945 273.559 428.906 273.559L322.169 255.266L236.341 285.976C236.301 285.976 236.223 286.015 236.184 286.015L195.658 292.478C195.619 292.517 195.58 292.517 195.541 292.517ZM174.436 288.522L195.541 290.794L235.871 284.331L321.856 253.581C322.012 253.542 322.13 253.503 322.286 253.542L418.373 269.994C392.413 258.595 362.068 224.947 339.554 181.468C317.196 138.301 307.212 94.4689 312.693 66.775L271.267 153.735C271.189 153.852 271.11 153.97 270.993 154.048L197.342 206.655L168.759 236.307L157.482 256.284C157.482 256.323 157.443 256.363 157.443 256.363C155.407 259.535 156.777 267.37 160.732 275.008C164.608 282.49 170.207 288.13 174.045 288.404C174.201 288.404 174.319 288.444 174.436 288.522Z" fill="black"/>
<path d="M270.6 153.069L317.077 55.3369H317.116C305.565 80.093 313.984 130.271 340.257 181.037C366.608 231.881 402.866 267.8 429.805 272.736L429.061 272.697L322.285 254.404L319.818 253.973C307.406 251.779 290.843 235.641 278.979 212.608C266.802 188.988 264.648 165.447 270.052 154.244L270.6 153.069Z" fill="white"/>
<path d="M429.805 273.598C429.766 273.598 429.805 273.598 429.805 273.598L429.022 273.558C428.983 273.558 428.944 273.558 428.905 273.558L322.128 255.266L319.662 254.835C306.545 252.524 289.904 235.719 278.196 213.039C264.923 187.265 264.257 164.311 269.269 153.891L269.856 152.716L316.333 55.0236C316.451 54.8277 316.608 54.671 316.842 54.5927C317.077 54.5143 317.312 54.5143 317.508 54.6319C317.939 54.8277 318.135 55.3369 317.939 55.7678C306.153 81.0331 315.472 131.25 341.08 180.684C366.726 230.196 402.475 266.86 430.001 271.913C430.432 271.992 430.745 272.383 430.706 272.853C430.588 273.245 430.236 273.598 429.805 273.598ZM312.614 66.7749L271.383 153.46L270.796 154.635C265.823 164.977 267.272 188.087 279.723 212.217C291.196 234.466 307.367 250.918 319.975 253.111L322.442 253.542L418.333 269.994C392.373 258.595 362.028 224.947 339.513 181.467C317.156 138.301 307.171 94.4687 312.614 66.7749Z" fill="black"/>
<path d="M194.366 292.4C194.326 292.4 194.287 292.4 194.287 292.4L173.77 290.206C173.653 290.206 173.535 290.167 173.418 290.089C168.954 289.384 163.316 283.743 159.204 275.831C154.858 267.448 153.566 259.3 155.954 255.462L155.993 255.344L167.27 235.367C167.505 234.936 168.014 234.819 168.445 235.054C168.876 235.289 168.993 235.798 168.758 236.229L157.481 256.284C157.481 256.323 157.442 256.363 157.442 256.363C155.406 259.535 156.777 267.37 160.731 275.008C164.608 282.49 170.207 288.13 174.044 288.404C174.162 288.404 174.318 288.444 174.396 288.522L194.444 290.676C194.914 290.716 195.266 291.146 195.188 291.616C195.149 292.047 194.796 292.4 194.366 292.4Z" fill="black"/>
<path d="M195.736 291.538C189.079 291.068 179.76 281.628 172.987 268.584C165.821 254.756 164.138 240.459 168.523 235.367L156.815 255.736L156.737 255.892C154.505 259.339 155.797 267.291 159.987 275.399C164.098 283.39 169.893 288.953 173.965 289.266L173.848 289.344L195.736 291.538Z" fill="white"/>
<path d="M195.736 292.4C195.697 292.4 195.697 292.4 195.658 292.4C195.501 292.4 195.305 292.36 195.149 292.36L173.77 290.206C173.653 290.206 173.535 290.167 173.418 290.088C168.954 289.383 163.316 283.743 159.204 275.83C154.858 267.448 153.566 259.3 155.954 255.461L155.993 255.344L166.291 237.404C166.683 236.385 167.192 235.484 167.818 234.74C168.092 234.387 168.601 234.348 168.954 234.583C169.306 234.857 169.424 235.327 169.189 235.719L167.74 238.187C165.43 244.415 167.701 256.636 173.653 268.074C180.113 280.57 188.923 289.697 195.227 290.519L195.697 290.559C196.167 290.598 196.519 291.029 196.48 291.499C196.519 292.047 196.167 292.4 195.736 292.4ZM174.396 288.522L189.354 290.049C183.598 286.367 177.255 278.768 172.204 268.975C167.309 259.535 164.882 249.742 165.273 242.692L157.481 256.284C157.481 256.323 157.442 256.362 157.442 256.362C155.406 259.535 156.777 267.369 160.731 275.008C164.608 282.489 170.207 288.13 174.044 288.404C174.162 288.404 174.318 288.443 174.396 288.522Z" fill="black"/>
<path d="M234.577 285.388L236.3 285.035C226.981 286.994 212.259 272.892 201.883 252.876C191.272 232.429 189.275 212.021 196.793 205.988L195.814 206.968L168.601 235.249C164.137 240.263 165.782 254.639 172.986 268.544C179.917 281.941 189.745 291.499 196.44 291.459L234.577 285.388Z" fill="black"/>
<path d="M196.402 292.36C189.276 292.36 179.369 282.764 172.204 268.975C164.921 254.874 163.081 240.146 167.936 234.701L194.64 206.968C195.11 206.341 195.658 205.793 196.245 205.323C196.598 205.048 197.107 205.088 197.42 205.401C197.733 205.753 197.733 206.263 197.42 206.576L195.893 208.182C190.45 215.468 193.152 234.113 202.667 252.484C212.925 272.305 227.256 285.897 236.027 284.252L236.144 284.213C236.614 284.135 237.045 284.409 237.162 284.879C237.241 285.349 236.967 285.78 236.497 285.897C236.458 285.897 236.418 285.897 236.379 285.936L234.774 286.25H234.735L196.598 292.321C196.519 292.321 196.441 292.36 196.402 292.36ZM192.369 211.825L169.228 235.876C164.921 240.733 166.879 254.913 173.77 268.192C180.505 281.197 190.02 290.598 196.402 290.637L230.075 285.27C220.991 282.058 209.793 269.955 201.14 253.307C192.917 237.443 189.745 221.304 192.369 211.825Z" fill="black"/>
<path d="M360.111 137.479C353.963 140.612 354.864 155.145 362.695 169.638C375.812 193.885 386.266 191.025 387.48 190.594C387.519 190.594 387.519 190.634 387.48 190.634L364.966 208.77C358.349 199.486 352.045 189.145 346.25 177.981C340.729 167.288 336.069 156.633 332.389 146.292L360.111 137.479Z" fill="black"/>
<path d="M364.966 209.631C364.926 209.631 364.887 209.631 364.848 209.631C364.613 209.592 364.417 209.475 364.261 209.279C357.487 199.76 351.183 189.341 345.505 178.412C340.063 167.914 335.364 157.221 331.605 146.645C331.527 146.41 331.527 146.174 331.645 145.979C331.762 145.783 331.919 145.626 332.154 145.548L359.875 136.734C360.306 136.617 360.776 136.813 360.933 137.243C361.089 137.674 360.933 138.144 360.541 138.34C359.21 139.006 358.231 140.338 357.644 142.297C355.725 148.446 358.074 159.336 363.517 169.325C376.321 192.984 386.188 190.281 387.245 189.889C387.637 189.733 388.106 189.928 388.302 190.281C388.498 190.634 388.42 191.143 388.106 191.417L365.514 209.436C365.357 209.553 365.161 209.631 364.966 209.631ZM333.524 146.84C337.244 157.064 341.786 167.405 347.033 177.59C352.514 188.166 358.622 198.233 365.161 207.516L384.7 191.77C380.236 191.574 371.818 188.244 361.951 170.03C356.234 159.493 353.885 148.368 355.96 141.67C356.234 140.808 356.547 140.064 356.939 139.359L333.524 146.84Z" fill="black"/>
<path d="M475.956 81.5974C493.856 72.1937 500.779 50.1159 491.42 32.2852C482.06 14.4545 459.961 7.62311 442.061 17.0268C424.161 26.4305 417.238 48.5083 426.598 66.339C435.957 84.1697 458.056 91.0011 475.956 81.5974Z" fill="black"/>
<path d="M442.337 41.2352C444.06 38.8849 446.605 37.4356 449.502 37.1223C451.695 36.8872 453.731 37.3573 455.65 38.5324C456.628 39.12 457.49 39.8642 458.312 40.7652C458.899 39.7075 459.604 38.7674 460.426 37.984C462.032 36.4172 463.95 35.5162 466.104 35.2812C469.001 34.9678 471.821 35.8296 474.013 37.749C476.167 39.6292 477.537 42.3712 477.89 45.4657C478.242 48.6385 477.381 51.6939 475.188 55.0626C473.23 58.0787 470.254 61.2124 466.809 64.8945C465.634 66.1479 464.303 67.5581 462.932 69.0466C462.58 69.4383 462.071 69.7125 461.523 69.7517C460.975 69.83 460.466 69.6733 459.996 69.36C458.312 68.1848 456.707 67.0881 455.297 66.1479C451.147 63.3276 447.544 60.899 444.96 58.3921C442.063 55.611 440.575 52.7906 440.222 49.6178C439.909 46.5233 440.653 43.5463 442.337 41.2352Z" fill="white"/>
<path d="M577.505 83.5925C590.609 70.4829 590.609 49.2281 577.505 36.1185C564.4 23.0089 543.154 23.0089 530.05 36.1185C516.945 49.228 516.945 70.4829 530.05 83.5925C543.154 96.7021 564.4 96.7021 577.505 83.5925Z" fill="#B9FF66"/>
<path d="M553.771 94.2732C534.82 94.2732 519.354 78.8399 519.354 59.8419C519.354 40.8832 534.781 25.4106 553.771 25.4106C572.761 25.4106 588.188 40.844 588.188 59.8419C588.188 78.8007 572.761 94.2732 553.771 94.2732ZM553.771 27.1342C535.76 27.1342 521.076 41.7841 521.076 59.8419C521.076 77.8606 535.72 92.5497 553.771 92.5497C571.782 92.5497 586.466 77.8998 586.466 59.8419C586.466 41.8233 571.822 27.1342 553.771 27.1342Z" fill="#B9FF66"/>
<path d="M562.855 63.1713C560.975 63.1713 559.331 64.0723 558.234 65.4824L546.918 61.0561C546.918 60.8994 546.958 60.7819 546.958 60.6252C546.958 60.351 546.918 60.0768 546.879 59.8026L558.469 54.4362C559.526 55.6505 561.093 56.4339 562.855 56.4731C566.065 56.4731 568.728 53.8486 568.728 50.5974C568.728 47.3462 566.104 44.6826 562.855 44.6826C559.644 44.6826 556.981 47.3071 556.981 50.5583C556.981 50.8325 557.02 51.1067 557.06 51.3809L545.47 56.7473C544.412 55.533 542.846 54.7496 541.084 54.7104C537.873 54.7104 535.211 57.3348 535.211 60.586C535.211 63.8372 537.834 66.5009 541.084 66.5009C542.964 66.5009 544.608 65.5999 545.705 64.1898L557.02 68.6161C557.02 68.7728 556.981 68.8903 556.981 69.047C556.981 72.2982 559.605 74.9618 562.855 74.9618C566.065 74.9618 568.728 72.3373 568.728 69.0861C568.689 65.8349 566.065 63.2105 562.855 63.1713Z" fill="black"/>
<path d="M563.299 189.993C578.666 179.322 582.526 158.283 571.922 142.999C561.318 127.715 540.264 123.975 524.898 134.645C509.531 145.315 505.671 166.355 516.275 181.639C526.879 196.923 547.933 200.663 563.299 189.993Z" fill="black"/>
<path d="M535.644 178.373L530.71 151.619C530.475 150.248 531.728 149.112 533.06 149.465L562.23 157.73C563.718 158.161 564.07 160.08 562.857 161.02L538.58 179.509C537.523 180.371 535.918 179.783 535.644 178.373Z" fill="white"/>
<path d="M543.768 299.582C562.744 290.34 570.685 267.553 561.503 248.686C552.322 229.819 529.496 222.016 510.52 231.258C491.543 240.499 483.603 263.286 492.784 282.153C501.965 301.02 524.792 308.823 543.768 299.582Z" fill="#B9FF66"/>
<path d="M526.95 304.347C522.878 304.347 518.728 303.72 514.695 302.349C504.827 299.059 496.84 292.165 492.219 282.842C487.599 273.559 486.894 263.022 490.223 253.151C497.114 232.821 519.276 221.735 539.676 228.512C549.543 231.802 557.53 238.696 562.151 248.019C566.771 257.303 567.476 267.84 564.148 277.711C558.588 294.006 543.278 304.347 526.95 304.347ZM527.342 228.277C511.719 228.277 497.075 238.148 491.789 253.738C488.617 263.178 489.283 273.245 493.707 282.098C498.132 290.99 505.767 297.61 515.204 300.743C534.703 307.206 555.886 296.63 562.464 277.202C565.636 267.761 564.97 257.694 560.545 248.842C556.121 239.95 548.486 233.33 539.049 230.196C535.173 228.865 531.218 228.277 527.342 228.277Z" fill="black"/>
<path d="M546.607 259.261C546.216 268.78 530.123 291.029 526.286 296.239C525.894 296.787 525.072 296.748 524.72 296.16C522.292 292.243 514.265 279.082 510.076 268.427C508.392 264.197 507.335 260.358 507.452 257.655C507.883 246.844 517.006 238.422 527.813 238.853C538.62 239.362 547.038 248.45 546.607 259.261Z" fill="black"/>
<path d="M533.363 264.827C536.864 261.324 536.864 255.644 533.363 252.141C529.861 248.638 524.184 248.638 520.682 252.141C517.18 255.644 517.18 261.324 520.682 264.827C524.184 268.33 529.861 268.33 533.363 264.827Z" fill="#B9FF66"/>
<defs>
<clipPath id="clip0_332_1228">
<rect width="36" height="36" fill="white" transform="translate(293.77 427)"/>
</clipPath>
<clipPath id="clip1_332_1228">
<rect width="70.3259" height="70.3259" fill="white" transform="translate(108.498 313) rotate(45)"/>
</clipPath>
</defs>
</svg>
